<?xml version="1.0" encoding="UTF-8"?>
<svg width="48" height="48" version="1.1" viewBox="0 0 48 48" xmlns="http://www.w3.org/2000/svg">
 <path class="ccustom" d="m23.788 15.286h1.8005v12.531h5.4014v1.8005h-7.2019zm12.81 0c1.0683 0 2.1126 0.31679 3.0008 0.91032 0.88826 0.59352 1.5806 1.437 1.9894 2.4241 0.4088 0.98702 0.51574 2.0731 0.30734 3.1208-0.2084 1.0478-0.7228 2.0102-1.4783 2.7656-0.75539 0.75548-1.7178 1.2699-2.7656 1.4783-1.0477 0.2084-2.1337 0.10146-3.1208-0.30734-0.98702-0.40889-1.8305-1.1012-2.4241-1.9894-0.59352-0.88826-0.91032-1.9325-0.91032-3.0008 0-0.7093 0.13972-1.4117 0.41114-2.067 0.27142-0.65537 0.66932-1.2508 1.1709-1.7523 0.50152-0.50161 1.0969-0.89952 1.7523-1.1709 0.65528-0.27142 1.3577-0.41114 2.067-0.41114zm0 9.0024c0.71218 0 1.4084-0.2112 2.0006-0.60685 0.59218-0.39574 1.0537-0.95812 1.3262-1.6161 0.27259-0.65798 0.34389-1.382 0.20489-2.0805-0.13891-0.69849-0.4819-1.3401-0.98549-1.8437-0.50359-0.50359-1.1452-0.84658-1.8437-0.98549-0.69858-0.139-1.4226-0.0677-2.0805 0.20489-0.65798 0.2725-1.2204 0.73405-1.6161 1.3262s-0.60685 1.2884-0.60685 2.0006c0.0048 0.95191 0.3862 1.8632 1.061 2.5346s1.588 1.0483 2.5399 1.0483zm-3.6009 3.5469h7.2019v1.8005h-7.2019z" fill="#394149" stroke-width=".90024"/>
 <path class="ccustom" d="m15.795 14.079c0-1.2988-0.51592-2.5445-1.4343-3.4629-0.91842-0.91842-2.1641-1.4344-3.4629-1.4344-1.2988 0-2.5445 0.51596-3.4629 1.4344-0.91842 0.91841-1.4344 2.1641-1.4344 3.4629v14.809l4.0331 2.8898v7.0398h1.7285v-7.0398l4.0331-2.8898zm-1.7285 8.2822-2.3046 2.3046v-2.1606l2.3046-2.3046zm-6.3016-2.1606 2.3046 2.3046v2.1606l-2.3046-2.3046zm6.3016-2.4486-3.1688 3.1688-3.1688-3.2408v-2.1606l3.1688 3.1688 3.1688-3.1688zm-3.1688-6.8418c0.69692 0.0031 1.3736 0.23454 1.9264 0.65891 0.55284 0.42437 0.95128 1.0183 1.1344 1.6907l-3.0608 3.0518-3.0608-3.0518c0.17639-0.67914 0.57198-1.2811 1.1254-1.7124 0.55343-0.43135 1.2337-0.66799 1.9354-0.67321zm-3.1688 17.104v-3.2408l2.3046 2.3046v2.5747zm4.0331 1.6474v-2.5837l2.3046-2.3046v3.2318z" fill="#394149" stroke-width=".90024"/>
</svg>
